# xmcd
#
# Track frame offsets:
#	150
#	13949
#	26804
#	41239
#	55932
#	71725
#	85055
#	98802
#	112754
#	126113
#	139139
#	155181
#	170049
#	181274
#	197151
#
# Disc length: 2796 seconds
#
# Revision: 1
# Processed by: cddbd v1.5.2PL0 Copyright (c) Steve Scherf et al.
# Submitted via: EasyCDDAExtractor 16.0.6.1
#
DISCID=d70aea0f
DTITLE=Maurício Motta e Mikael - Quando o Sol Brilhar
DYEAR=2011
DGENRE=Sertanejo
TTITLE0=Carinho do Meu Jeito
TTITLE1=Sonhos Perdidos
TTITLE2=Eu te Amei Demais
TTITLE3=Atrevida
TTITLE4=Pra Te Dizer
TTITLE5=E Quando o Sol Brilhar
TTITLE6=Mercedita
TTITLE7=Vida Pelo Avesso
TTITLE8=Duvido
TTITLE9=Faz Meu Coração Gostar de Mim
TTITLE10=Tanta Saudade
TTITLE11=Declaração
TTITLE12=Até Pode Ser
TTITLE13=Linda Mineira
TTITLE14=Empurrando com a Barriga
EXTD=
EXTT0=
EXTT1=
EXTT2=
EXTT3=
EXTT4=
EXTT5=
EXTT6=
EXTT7=
EXTT8=
EXTT9=
EXTT10=
EXTT11=
EXTT12=
EXTT13=
EXTT14=
PLAYORDER=
